<svg xmlns="http://www.w3.org/2000/svg" xmlns:xlink="http://www.w3.org/1999/xlink" version="1.1" id="Layer_1" x="0px" y="0px" width="96px" height="96px" viewBox="0 0 96 96" enable-background="new 0 0 96 96" xml:space="preserve">
<path d="M52,30V20H40v10c0,1.104-0.896,2-2,2H28v12h10c1.104,0,2,0.896,2,2v10h12V46c0-1.104,0.9-2,2-2h10V32H54  C52.9,32,52,31.104,52,30z"/>
<path d="M94,4H4c0-1.104-0.896-2-2-2S0,2.896,0,4v88c0,1.1,0.896,2,2,2s2-0.9,2-2V72h90c1.1,0,2-0.9,2-2V6C96,4.896,95.1,4,94,4z   M68,46c0,1.104-0.9,2-2,2H56v10c0,1.1-0.9,2-2,2H38c-1.104,0-2-0.9-2-2V48H26c-1.104,0-2-0.896-2-2V30c0-1.104,0.896-2,2-2h10V18  c0-1.104,0.896-2,2-2h16c1.1,0,2,0.896,2,2v10h10c1.1,0,2,0.896,2,2V46z"/>
</svg>