<svg xmlns="http://www.w3.org/2000/svg" xmlns:xlink="http://www.w3.org/1999/xlink" version="1.1" id="Your_Icon" x="0px" y="0px" width="100px" height="100px" viewBox="0 0 100 100" enable-background="new 0 0 100 100" xml:space="preserve">
<path fill="#ef8d1d" d="M77.938,7.445H29.061c-0.055,0-0.108-0.198-0.163-0.193l0.083-0.122c0,0-6.864,1.125-6.864,8.065v4.935  c0,0.302-1.233,1.017-1.233,1.851s1.233,1.548,1.233,1.851v11.41c0,0.302-1.233,1.017-1.233,1.85c0,0.833,1.233,1.549,1.233,1.851  v11.41c0,0.302-1.233,1.017-1.233,1.85c0,0.834,1.233,1.548,1.233,1.851v11.41c0,0.302-1.233,1.016-1.233,1.85  s1.233,1.548,1.233,1.852V81.19c0,0.937,0.61,2.255,1.546,2.255h5.454v9.424l3.699-4.367l4.301,4.367v-9.424h35.581  c0.936,0,1.42-1.318,1.42-2.255v-2.745h3.82c0.768,0,1.18-1.731,1.18-2.498V8.413C79.117,7.646,78.705,7.445,77.938,7.445z   M58.117,40.445h-7v19h-4v-19h-7v-4h7v-8h4v8h7V40.445z M76.117,75.445h-2V15.196c0-0.936-0.484-0.751-1.42-0.751h-46.21  l0.223-0.486c0.212-2.781,3.407-3.905,3.407-3.926v0.412h46V75.445z"/>
</svg>
