<svg xmlns="http://www.w3.org/2000/svg" xmlns:xlink="http://www.w3.org/1999/xlink" version="1.1" id="Layer_1" x="0px" y="0px" width="100px" height="100px" viewBox="0 0 100 100" enable-background="new 0 0 100 100" xml:space="preserve">
<path fill="#3bad14" d="M76.882,34.766c-0.633-3.163-1.299-6.127-1.802-8.282c0.105-0.253,0.206-0.516,0.302-0.79  c1.213-3.491,1.209-7.812-0.013-13.209C73.366,3.636,67.148,0.483,61.998,0.483c-5.911,0-11.704,3.931-13.772,9.347  c-0.812,2.125-0.756,4.225-0.435,6.208c-1.128,1.233-1.928,2.764-2.255,4.477c-0.174,0.913-0.217,1.893-0.092,2.896  c-1.729-0.456-3.67-0.732-5.849-0.757v-0.002h-0.32v0.002c-2.374,0.027-4.469,0.35-6.312,0.878c0.267-1.267,0.255-2.519,0.037-3.663  c-0.343-1.793-1.204-3.387-2.416-4.648c0.248-1.425,0.378-2.875,0.167-4.343C29.889,4.88,23.605,0.001,16.744,0  C11.476,0,5.143,3.109,3.167,11.838C1.604,18.745,2.373,23.431,3.779,26.54c-0.502,2.15-1.162,5.09-1.789,8.227  c-2.397,11.989-2.176,16.087-1.643,18.515c0.61,2.779,3.855,16.304,11.027,25.612c0.505,3.352,1.489,9.877,2.166,14.381L14.552,100  h6.8h35.641h6.8l1.012-6.726c0.665-4.419,1.928-10.981,2.563-14.215c7.266-9.315,10.543-22.983,11.156-25.778  C79.057,50.854,79.278,46.756,76.882,34.766z M70.808,51.588c-1.522,6.94-5.241,17.775-10.797,23.964c0,0-2.07,10.25-3.018,16.548  H21.352c-0.947-6.298-2.492-16.548-2.492-16.548c-5.555-6.188-9.273-17.023-10.797-23.964c-1.155-5.267,4.213-26.597,4.213-26.597  s-3.511-2.103-1.404-11.409C11.828,9.361,14.289,7.9,16.743,7.9c2.958,0,5.905,2.125,6.189,4.102  c0.306,2.126-2.227,8.313-0.47,8.313c0.102,0,0.217-0.021,0.347-0.063c0.236-0.077,0.472-0.113,0.701-0.113  c1.887,0,3.226,2.438-1.314,4.238c-1.401,0.556-2.306,0.62-2.652,0.62c-0.104,0-0.158-0.006-0.158-0.006s-3.068,23.583-2.106,26.07  c1.123,2.905,3.546,8.441,6.176,12.318c0,0,0.229,0.351,0.378,0.52l2.545,2.896c0.78,0.889,1.872,1.343,2.968,1.343  c0.926,0,1.856-0.323,2.605-0.982c1.639-1.44,1.8-3.936,0.36-5.574l-2.786-3.285v0.027c-2.442-3.271-3.339-6.836-3.339-10.977  c0-9.74,3.557-16.719,13.246-16.795c-0.053,0-0.106,0-0.159,0h0.32c-0.054,0-0.107,0-0.161,0  c9.613,0.077,13.247,7.055,13.247,16.795c0,4.042-1.509,8.055-3.572,10.802l0,0l-3.156,3.459c-1.44,1.639-1.279,4.135,0.36,5.575  c0.75,0.659,1.68,0.982,2.605,0.982c1.097,0,2.188-0.454,2.969-1.343l-0.011-0.006c4.23-3.293,8.367-12.274,9.714-15.756  c0.962-2.487-2.106-25.017-2.106-25.017s-1.318-0.296-3.144-1.02c-4.541-1.801-3.201-4.239-1.314-4.239  c0.229,0,0.465,0.036,0.7,0.113c0.129,0.042,0.241,0.062,0.339,0.062c1.721,0-1.228-6.303-0.46-8.312  c0.841-2.202,3.647-4.267,6.393-4.267c2.368,0,4.69,1.537,5.666,5.847c2.106,9.306-1.069,10.762-1.069,10.762  S71.964,46.321,70.808,51.588z"/>
</svg>
